<svg width="21" height="24" viewBox="0 0 21 24" fill="none" xmlns="http://www.w3.org/2000/svg">
<path d="M16.8472 23.0371C15.5407 24.3036 14.1143 24.1036 12.7411 23.5037C11.288 22.8904 9.95479 22.8638 8.42165 23.5037C6.50189 24.3303 5.48868 24.0903 4.34216 23.0371C-2.16368 16.3313 -1.2038 6.11923 6.18193 5.74594C7.9817 5.83926 9.23488 6.73248 10.2881 6.81247C11.8612 6.49251 13.3677 5.57263 15.0475 5.69261C17.0606 5.85259 18.5804 6.65249 19.5802 8.09231C15.4208 10.5853 16.4073 16.0646 20.2202 17.5978C19.4603 19.5975 18.4737 21.5839 16.8339 23.0504L16.8472 23.0371ZM10.1548 5.66595C9.95479 2.69299 12.3678 0.23997 15.1408 0C15.5274 3.43957 12.0212 5.99924 10.1548 5.66595Z" fill="black"/>
</svg>
