<svg width="110" height="111" viewBox="0 0 110 111" fill="none" xmlns="http://www.w3.org/2000/svg">
<path fill-rule="evenodd" clip-rule="evenodd" d="M67.7152 8.99001C66.5648 6.59418 64.7608 4.57214 62.5112 3.15687C60.2616 1.74161 57.658 0.990723 55.0002 0.990723C52.3425 0.990723 49.7388 1.74161 47.4892 3.15687C45.2397 4.57214 43.4357 6.59418 42.2852 8.99001L1.70521 88.815C-3.14979 98.345 2.98521 111 14.4152 111H95.5802C107.015 111 113.14 98.35 108.295 88.815L67.7152 8.99001ZM55.0002 36C56.3263 36 57.5981 36.5268 58.5358 37.4645C59.4734 38.4022 60.0002 39.6739 60.0002 41V66C60.0002 67.3261 59.4734 68.5979 58.5358 69.5355C57.5981 70.4732 56.3263 71 55.0002 71C53.6741 71 52.4024 70.4732 51.4647 69.5355C50.527 68.5979 50.0002 67.3261 50.0002 66V41C50.0002 39.6739 50.527 38.4022 51.4647 37.4645C52.4024 36.5268 53.6741 36 55.0002 36ZM55.0002 78.5C56.3263 78.5 57.5981 79.0268 58.5358 79.9645C59.4734 80.9022 60.0002 82.1739 60.0002 83.5V86C60.0002 87.3261 59.4734 88.5979 58.5358 89.5355C57.5981 90.4732 56.3263 91 55.0002 91C53.6741 91 52.4024 90.4732 51.4647 89.5355C50.527 88.5979 50.0002 87.3261 50.0002 86V83.5C50.0002 82.1739 50.527 80.9022 51.4647 79.9645C52.4024 79.0268 53.6741 78.5 55.0002 78.5Z" fill="url(#paint0_linear_1602_9036)"/>
<defs>
<linearGradient id="paint0_linear_1602_9036" x1="54.9981" y1="0.990723" x2="54.9981" y2="111" gradientUnits="userSpaceOnUse">
<stop stop-color="#C01A1A"/>
<stop offset="1" stop-color="#F22424"/>
</linearGradient>
</defs>
</svg>
