<svg width="51" height="40" viewBox="0 0 51 40" fill="none" xmlns="http://www.w3.org/2000/svg">
<rect width="50.9106" height="40" rx="8" fill="#F0F2FD"/>
<path d="M16.7273 14.9087H27.0349C27.1854 15.334 27.4641 15.7021 27.8324 15.9625C28.2008 16.2229 28.6408 16.3627 29.0919 16.3627C29.543 16.3627 29.9831 16.2229 30.3514 15.9625C30.7198 15.7021 30.9984 15.334 31.1489 14.9087H34.1832C34.3761 14.9087 34.5611 14.8321 34.6975 14.6957C34.8339 14.5593 34.9106 14.3743 34.9106 14.1814C34.9106 13.9885 34.8339 13.8035 34.6975 13.6671C34.5611 13.5307 34.3761 13.454 34.1832 13.454H31.1489C30.9984 13.0288 30.7198 12.6606 30.3514 12.4002C29.9831 12.1398 29.543 12 29.0919 12C28.6408 12 28.2008 12.1398 27.8324 12.4002C27.4641 12.6606 27.1854 13.0288 27.0349 13.454H16.7273C16.5344 13.454 16.3494 13.5307 16.213 13.6671C16.0766 13.8035 16 13.9885 16 14.1814C16 14.3743 16.0766 14.5593 16.213 14.6957C16.3494 14.8321 16.5344 14.9087 16.7273 14.9087Z" fill="#333333"/>
<path d="M34.1832 25.0913H31.1489C30.9984 24.666 30.7198 24.2979 30.3514 24.0375C29.9831 23.7771 29.543 23.6373 29.0919 23.6373C28.6408 23.6373 28.2008 23.7771 27.8324 24.0375C27.4641 24.2979 27.1854 24.666 27.0349 25.0913H16.7273C16.5344 25.0913 16.3494 25.1679 16.213 25.3043C16.0766 25.4407 16 25.6257 16 25.8186C16 26.0115 16.0766 26.1965 16.213 26.3329C16.3494 26.4693 16.5344 26.546 16.7273 26.546H27.0349C27.1854 26.9712 27.4641 27.3394 27.8324 27.5998C28.2008 27.8602 28.6408 28 29.0919 28C29.543 28 29.9831 27.8602 30.3514 27.5998C30.7198 27.3394 30.9984 26.9712 31.1489 26.546H34.1832C34.3761 26.546 34.5611 26.4693 34.6975 26.3329C34.8339 26.1965 34.9106 26.0115 34.9106 25.8186C34.9106 25.6257 34.8339 25.4407 34.6975 25.3043C34.5611 25.1679 34.3761 25.0913 34.1832 25.0913Z" fill="#333333"/>
<path d="M34.1832 19.2727H23.8756C23.7251 18.8474 23.4465 18.4792 23.0781 18.2188C22.7098 17.9585 22.2697 17.8186 21.8186 17.8186C21.3675 17.8186 20.9275 17.9585 20.5591 18.2188C20.1908 18.4792 19.9122 18.8474 19.7617 19.2727H16.7273C16.5344 19.2727 16.3494 19.3493 16.213 19.4857C16.0766 19.6221 16 19.8071 16 20C16 20.1929 16.0766 20.3779 16.213 20.5143C16.3494 20.6507 16.5344 20.7273 16.7273 20.7273H19.7617C19.9122 21.1526 20.1908 21.5208 20.5591 21.7812C20.9275 22.0415 21.3675 22.1814 21.8186 22.1814C22.2697 22.1814 22.7098 22.0415 23.0781 21.7812C23.4465 21.5208 23.7251 21.1526 23.8756 20.7273H34.1832C34.3761 20.7273 34.5611 20.6507 34.6975 20.5143C34.8339 20.3779 34.9106 20.1929 34.9106 20C34.9106 19.8071 34.8339 19.6221 34.6975 19.4857C34.5611 19.3493 34.3761 19.2727 34.1832 19.2727Z" fill="#333333"/>
</svg>
