<svg width="34" height="33" viewBox="0 0 34 33" fill="none" xmlns="http://www.w3.org/2000/svg">
<path d="M17 0.25C8.03984 0.25 0.75 7.53984 0.75 16.5C0.75 25.4602 8.03984 32.75 17 32.75C25.9602 32.75 33.25 25.4602 33.25 16.5C33.25 7.53984 25.9602 0.25 17 0.25ZM13.0766 9.37656C14.0664 8.32734 15.4594 7.75 17 7.75C18.5406 7.75 19.9211 8.33125 20.9148 9.38594C21.9219 10.4547 22.4117 11.8906 22.2961 13.4344C22.0648 16.5 19.6898 19 17 19C14.3102 19 11.9305 16.5 11.7039 13.4336C11.5891 11.8773 12.0781 10.4367 13.0766 9.37656ZM17 30.25C15.1644 30.2512 13.3473 29.8838 11.6564 29.1696C9.96545 28.4554 8.43516 27.4089 7.15625 26.0922C7.88872 25.0476 8.82199 24.1595 9.90156 23.4797C11.893 22.2031 14.4133 21.5 17 21.5C19.5867 21.5 22.107 22.2031 24.0961 23.4797C25.1766 24.1592 26.1107 25.0473 26.8438 26.0922C25.565 27.409 24.0347 28.4556 22.3437 29.1699C20.6528 29.8841 18.8356 30.2514 17 30.25Z" fill="#BCBCBC"/>
</svg>
