<svg width="24" height="25" viewBox="0 0 24 25" fill="none" xmlns="http://www.w3.org/2000/svg">
<path d="M12 8.5V13.5H17V11.5H14V8.5H12Z" fill="white"/>
<path d="M21.292 8.99699C21.066 8.46199 20.787 7.94699 20.463 7.46799C20.141 6.98999 19.772 6.54199 19.364 6.13499C18.956 5.72799 18.51 5.35999 18.032 5.03699C17.55 4.71099 17.035 4.43299 16.504 4.20799C15.959 3.97799 15.39 3.80099 14.814 3.68299C13.633 3.43999 12.37 3.43899 11.188 3.68299C10.609 3.80099 10.041 3.97799 9.498 4.20699C8.967 4.43199 8.453 4.70999 7.969 5.03699C7.492 5.35899 7.043 5.72899 6.636 6.13599C6.229 6.54299 5.859 6.99199 5.537 7.46799C5.211 7.95199 4.932 8.46599 4.708 8.99599C4.478 9.53999 4.301 10.109 4.183 10.686C4.062 11.278 4 11.888 4 12.5C4 12.508 4.001 12.517 4.001 12.525H2L5 16.5L8 12.525H6.001C6.001 12.517 6 12.508 6 12.5C6 12.023 6.048 11.548 6.142 11.088C6.234 10.639 6.371 10.198 6.55 9.77499C6.724 9.36299 6.941 8.96199 7.195 8.58699C7.445 8.21599 7.733 7.86799 8.05 7.54999C8.367 7.23199 8.716 6.94499 9.086 6.69499C9.462 6.44099 9.863 6.22399 10.276 6.04899C10.697 5.86999 11.139 5.73299 11.589 5.64099C12.508 5.45199 13.493 5.45299 14.412 5.64099C14.859 5.73299 15.302 5.86999 15.725 6.04899C16.138 6.22299 16.538 6.44099 16.913 6.69299C17.283 6.94399 17.633 7.23199 17.95 7.54899C18.267 7.86499 18.554 8.21399 18.805 8.58599C19.057 8.95799 19.274 9.35799 19.45 9.77499C19.628 10.192 19.764 10.633 19.858 11.086C19.952 11.549 20 12.024 20 12.5C20 12.976 19.952 13.451 19.858 13.91C19.764 14.365 19.628 14.806 19.45 15.224C19.274 15.64 19.057 16.039 18.804 16.413C18.554 16.784 18.267 17.133 17.95 17.449C17.633 17.766 17.283 18.054 16.914 18.304C16.538 18.557 16.139 18.775 15.725 18.95C15.302 19.129 14.86 19.266 14.412 19.358C13.494 19.546 12.51 19.547 11.589 19.358C11.14 19.266 10.699 19.129 10.276 18.95C9.864 18.776 9.463 18.559 9.088 18.305C8.717 18.055 8.369 17.767 8.051 17.45L6.637 18.864C7.044 19.272 7.492 19.641 7.969 19.963C8.452 20.289 8.967 20.568 9.497 20.792C10.041 21.022 10.61 21.199 11.187 21.317C11.778 21.438 12.388 21.5 13 21.5C13.612 21.5 14.223 21.438 14.813 21.317C15.39 21.199 15.959 21.023 16.503 20.793C17.035 20.568 17.55 20.289 18.034 19.962C18.51 19.64 18.957 19.271 19.364 18.864C19.771 18.457 20.14 18.009 20.462 17.533C20.787 17.053 21.066 16.538 21.292 16.004C21.52 15.466 21.697 14.898 21.817 14.312C21.938 13.72 22 13.11 22 12.5C22 11.89 21.938 11.28 21.817 10.686C21.697 10.102 21.52 9.53399 21.292 8.99699Z" fill="white"/>
</svg>
