<svg width="18" height="19" viewBox="0 0 18 19" fill="none" xmlns="http://www.w3.org/2000/svg">
<path d="M1 10.5H7C7.552 10.5 8 10.053 8 9.5V1.5C8 0.947 7.552 0.5 7 0.5H1C0.448 0.5 0 0.947 0 1.5V9.5C0 10.053 0.448 10.5 1 10.5ZM0 17.5C0 18.053 0.448 18.5 1 18.5H7C7.552 18.5 8 18.053 8 17.5V13.5C8 12.947 7.552 12.5 7 12.5H1C0.448 12.5 0 12.947 0 13.5V17.5ZM10 17.5C10 18.053 10.447 18.5 11 18.5H17C17.553 18.5 18 18.053 18 17.5V10.5C18 9.947 17.553 9.5 17 9.5H11C10.447 9.5 10 9.947 10 10.5V17.5ZM11 7.5H17C17.553 7.5 18 7.053 18 6.5V1.5C18 0.947 17.553 0.5 17 0.5H11C10.447 0.5 10 0.947 10 1.5V6.5C10 7.053 10.447 7.5 11 7.5Z" fill="white"/>
</svg>
