<svg width="367" height="366" viewBox="0 0 367 366" fill="none" xmlns="http://www.w3.org/2000/svg">
<g clip-path="url(#clip0_92_3181)">
<path fill-rule="evenodd" clip-rule="evenodd" d="M353.191 152.916C348.974 184.355 344.214 200.962 316.433 233.887C288.651 266.812 161.521 288.471 114.522 288.471C67.5219 288.471 9.59992 252.229 13.2555 210.237C16.9111 168.245 35.9831 133.924 81.6324 129.699C128.284 125.381 169.263 145.376 215.064 134.652C254.661 125.381 266.776 90.0424 293.972 78.8935C348.974 56.345 356.059 131.527 353.191 152.916Z" fill="#DCEBE3"/>
<path d="M324.894 168.27C323.34 170.904 303.669 184.232 291.736 186.204C289.427 186.586 286.906 186.717 284.9 185.511C283.715 184.799 282.832 183.688 281.993 182.589C280.076 180.077 278.246 177.497 276.51 174.856C275.597 173.468 274.692 172.02 274.382 170.388C273.561 166.066 277.044 162.185 280.487 159.448C288.4 153.154 297.664 148.569 307.468 146.095C309.203 145.658 311.043 145.287 312.763 145.784C315.553 146.591 317.221 149.415 318.286 152.117C319.351 154.82 320.181 157.776 322.309 159.753C322.795 160.205 326.447 165.636 324.894 168.27Z" fill="white"/>
<path fill-rule="evenodd" clip-rule="evenodd" d="M219.194 283.091C200.103 286.356 209.202 272.48 211.835 255.113C216.161 226.575 221.496 183.207 221.496 183.207C221.496 183.207 224.975 249.289 224.975 265.38C224.975 281.471 221.495 282.697 219.194 283.091Z" fill="white"/>
<path d="M198.795 267.368C199.283 271.964 199.797 276.656 201.749 280.844C200.684 271.361 199.619 261.876 198.553 252.393C198.421 251.221 198.461 249.731 199.538 249.253C200.45 259.962 201.809 270.633 203.611 281.229C203.825 282.487 201.935 283.206 200.874 282.497C199.813 281.789 199.473 280.409 199.232 279.156C197.473 270.026 196.507 260.743 196.346 251.446C194.107 251.887 192.537 254.057 192.084 256.294C191.631 258.53 192.068 260.839 192.504 263.079C193.908 270.289 195.312 277.498 196.716 284.707C197.373 288.079 198.03 291.563 197.305 294.921C194.518 282.199 192.278 269.357 190.592 256.443C169.211 269.517 141.661 271.948 118.321 262.82C113.223 260.827 108.16 258.185 104.793 253.869C102.141 250.47 100.726 246.249 99.9841 242.002C97.3508 226.916 102.747 211.528 110.072 198.08C112.851 192.977 116.016 187.662 115.791 181.856C115.714 179.857 115.283 177.644 116.451 176.019C116.616 176.32 108.809 120.474 111.941 108.12C119.48 78.3811 143.974 74.3536 159.656 74.7206C170.178 74.9666 236.875 88.2216 246.512 106.246C259.177 129.937 256.488 149.855 254.239 162.988C253.569 166.898 221.505 182.919 221.496 183C219.663 200.041 207.362 237.173 197.045 250.86C197.628 256.363 198.212 261.866 198.795 267.368Z" fill="white"/>
<path fill-rule="evenodd" clip-rule="evenodd" d="M44.8409 198.029C38.8277 195.629 31.6618 196.341 26.2405 199.877C25.7157 200.22 24.9611 199.838 24.7013 199.268C24.4415 198.699 24.5387 198.036 24.6715 197.425C26.403 189.457 33.3006 183.36 40.9713 180.558C48.642 177.756 57.0325 177.749 65.1865 178.227C65.9956 178.275 66.8413 178.338 67.5314 178.762C68.2214 179.186 68.686 180.093 68.3419 180.826C65.1343 187.656 62.7182 194.856 61.1566 202.237C60.9033 203.434 59.6633 204.228 58.4419 204.328C57.2204 204.428 56.0238 203.977 54.9156 203.455C51.461 201.829 48.387 199.445 44.8409 198.029Z" fill="white"/>
<path fill-rule="evenodd" clip-rule="evenodd" d="M229.669 77.7447C229.968 73.1741 229.623 68.5616 228.649 64.0861L228.628 63.9905C228.463 63.2336 228.293 62.4552 228.445 61.6978C228.782 60.023 230.642 59.0148 232.351 59.0499C234.059 59.0851 235.641 59.9005 237.153 60.6969C244.403 64.516 251.783 68.4313 257.491 74.3102C257.67 79.0697 256.548 83.7662 255.441 88.4027L255.337 88.8384C250.714 108.217 246.929 127.796 243.996 147.502C243.714 149.39 243.181 151.619 241.39 152.28C240.105 152.755 238.61 152.148 237.697 151.127C236.784 150.105 236.348 148.75 236.044 147.414C235.293 144.119 235.202 140.674 235.78 137.344C236.132 135.308 236.729 133.327 237.326 131.346L237.326 131.345V131.345V131.344C237.862 129.566 238.398 127.787 238.757 125.967C239.117 124.147 239.299 122.297 239.475 120.45C240.41 110.628 241.204 100.792 241.855 90.9471C241.947 89.5563 242.031 88.1211 241.575 86.8035C240.764 84.4601 238.404 82.9785 236.019 82.2997C235.607 82.1826 235.19 82.0831 234.772 81.9835C233.801 81.7517 232.83 81.5199 231.943 81.0685C230.676 80.4229 229.577 79.1638 229.669 77.7447ZM234.099 77.369C237.47 78.0805 240.765 79.1546 243.907 80.5673C244.54 80.8518 245.206 81.1847 245.547 81.7883C245.827 82.2812 245.843 82.8751 245.851 83.4417C245.95 90.0955 245.971 96.7675 245.266 103.385C244.844 107.347 244.163 111.275 243.483 115.203C243.267 116.446 243.052 117.689 242.845 118.933C241.82 125.09 240.994 131.28 240.371 137.49C239.919 141.996 239.587 146.653 240.989 150.96C241.708 150.829 241.985 149.962 242.121 149.244L255.075 80.9694C255.388 79.3151 255.702 77.6047 255.332 75.9621C254.685 73.0863 252.132 71.0865 249.671 69.4639C244.933 66.3407 239.891 63.6806 234.638 61.5339C234.2 66.7994 234.021 72.0859 234.099 77.369ZM240.76 122.209C243.132 110.033 244.203 97.6044 243.951 85.2024C243.932 84.2654 243.881 83.2587 243.308 82.5174C242.888 81.9742 242.247 81.6561 241.62 81.3755C239.267 80.3214 236.794 79.5372 234.263 79.0428C233.531 78.8998 232.454 79.055 232.486 79.8007L241.581 83.5588C242.115 83.7793 242.683 84.0287 242.984 84.5211C243.28 85.0037 243.251 85.6103 243.213 86.1749L240.76 122.209ZM232.297 60.3295C231.547 59.8322 230.463 60.3446 230.046 61.1415C229.628 61.9384 229.692 62.892 229.786 63.7865C229.925 65.0992 230.108 66.4124 230.291 67.7261C230.798 71.37 231.306 75.0154 230.875 78.6519C231.562 78.8881 232.33 78.403 232.664 77.7569C232.997 77.1108 233.006 76.352 233.007 75.6244L233.031 62.5108C233.032 61.7095 232.964 60.7721 232.297 60.3295ZM239.031 150.664C238.618 147.423 238.51 144.144 238.709 140.883C238.814 139.139 239.008 137.402 239.201 135.664C239.457 133.367 239.713 131.07 239.767 128.761C237.877 134.383 237.164 140.398 237.686 146.306C237.821 147.843 238.073 149.455 239.031 150.664ZM240.071 125.439C240.375 125.303 240.502 124.876 240.323 124.596C240.014 124.748 239.883 125.179 240.055 125.477L240.071 125.439ZM237.246 97.2799C222.213 88.0088 205.214 82.4539 188.215 77.6608C182.78 76.1285 177.301 74.6601 171.69 74.0315C155.064 72.1693 138.21 77.9053 124.386 87.3271C118.842 91.1062 113.492 95.7539 111.097 102.021C109.32 106.671 109.332 111.791 109.503 116.766C110.095 133.925 112.296 150.983 114.495 168.011C116.215 167.7 116.385 165.322 116.136 163.593C113.849 147.714 112.567 131.689 112.299 115.648C112.224 111.15 112.248 106.539 113.804 102.317C116.623 94.6769 123.89 89.6802 131.022 85.7475C140.004 80.7943 149.768 76.6306 160.022 76.4096C172.444 76.1421 184.219 81.6522 195.07 87.7038C201.12 91.0774 207.254 94.8452 211.102 100.604C214.597 105.834 215.867 112.207 216.784 118.43C219.694 138.179 219.801 158.22 219.902 178.182C219.905 178.99 219.856 179.915 219.224 180.417C218.791 180.761 218.2 180.804 217.649 180.832L197.383 181.887C206.827 184.602 217.302 183.531 226.001 178.962L248.519 167.132C250.621 166.028 252.79 164.868 254.239 162.988C256.232 160.399 256.518 156.917 256.611 153.651C256.959 141.589 255.753 129.484 253.032 117.728C253.976 130.445 254.106 143.223 253.424 155.956C253.308 158.131 253.133 160.412 251.95 162.241C250.688 164.194 248.492 165.3 246.399 166.317L222.098 178.129C223.104 159.247 222.324 140.27 219.772 121.535C218.913 115.233 217.818 108.844 214.935 103.175C208.119 89.7798 193.035 83.1532 179.094 77.5388C199.937 83.6364 221.018 89.8349 239.769 100.79C240.013 99.2763 238.551 98.0846 237.246 97.2799ZM314.91 154.917C315.99 157.702 317.509 160.67 320.301 161.731C320.962 161.783 321.357 160.905 321.141 160.279C320.959 159.755 320.533 159.374 320.114 158.999C320.084 158.972 320.053 158.945 320.023 158.918L319.977 158.876L319.94 158.843L319.917 158.822C319.901 158.807 319.885 158.792 319.869 158.778C318.092 157.127 317.22 154.794 316.361 152.496L316.361 152.494C316.191 152.04 316.022 151.587 315.846 151.141C314.781 148.439 313.113 145.616 310.323 144.808C308.603 144.311 306.764 144.682 305.028 145.119C295.225 147.593 285.96 152.178 278.047 158.472C274.604 161.209 271.122 165.09 271.942 169.412C272.253 171.043 273.157 172.492 274.07 173.88C275.807 176.521 277.636 179.101 279.554 181.614C280.393 182.713 281.275 183.823 282.46 184.535C284.466 185.741 286.987 185.61 289.297 185.228C301.229 183.256 311.442 175.84 321.16 168.641C321.666 168.266 322.192 167.867 322.454 167.294C322.716 166.722 322.604 165.926 322.048 165.631C321.411 165.292 320.659 165.759 320.091 166.204C311.048 173.284 301.388 180.203 290.175 182.691C288.049 183.162 285.706 183.44 283.794 182.399C282.363 181.62 281.397 180.22 280.484 178.871L274.828 170.501C274.352 169.796 273.857 169.038 273.84 168.188C273.822 167.337 274.51 166.417 275.353 166.527C283.282 167.558 291.249 168.299 299.232 168.748C299.868 168.784 300.532 168.813 301.111 168.548C301.857 168.208 302.312 167.453 302.71 166.736C306.089 160.644 308.671 154.109 310.368 147.352C312.623 148.969 313.676 151.709 314.681 154.323L314.681 154.325C314.758 154.523 314.834 154.721 314.91 154.917ZM307.931 146.817C306.421 152.468 304.186 157.926 301.299 163.013C300.815 163.866 300.278 164.744 299.431 165.24C298.355 165.87 297.015 165.752 295.775 165.613L276.024 163.409C279.301 159.079 284.169 156.269 289.033 153.854C293.637 151.568 298.364 149.53 303.186 147.749C304.712 147.185 306.313 146.639 307.931 146.817ZM198.795 267.368C199.283 271.964 199.796 276.656 201.749 280.845L198.552 252.393C198.421 251.221 198.46 249.731 199.537 249.253C200.449 259.962 201.808 270.634 203.61 281.229C203.824 282.487 201.935 283.206 200.873 282.497C199.812 281.789 199.473 280.409 199.231 279.156C197.473 270.026 196.506 260.743 196.345 251.446C194.107 251.887 192.536 254.057 192.084 256.294C191.631 258.53 192.067 260.839 192.504 263.079L196.716 284.707C197.373 288.079 198.029 291.563 197.304 294.921C194.518 282.199 192.277 269.357 190.592 256.443C169.211 269.517 141.66 271.948 118.32 262.821C113.222 260.827 108.16 258.185 104.793 253.87C102.14 250.47 100.725 246.249 99.9838 242.002C97.3506 226.916 102.747 211.528 110.071 198.08C110.262 197.73 110.454 197.378 110.648 197.026C113.269 192.245 116 187.264 115.791 181.857C115.777 181.499 115.752 181.135 115.727 180.768C115.611 179.085 115.491 177.354 116.45 176.02C117.736 178.359 118.226 181.127 117.82 183.765C139.955 182.813 162.123 182.62 184.272 183.19C184.53 184.208 183.055 184.681 182.004 184.666C161.335 184.357 140.656 184.709 120.009 185.721C119.355 185.753 118.669 185.796 118.115 186.144C117.532 186.51 117.192 187.153 116.878 187.766C111.019 199.231 105.14 210.864 102.307 223.425C100.85 229.884 100.293 236.954 103.278 242.864C104.41 245.106 106.013 247.087 107.801 248.851C117.402 258.321 131.779 261.224 145.262 260.998C153.868 260.853 162.455 259.616 170.752 257.325C179.547 254.897 188.32 251.07 194.323 244.198C197.849 240.163 200.245 235.276 202.343 230.346C206.35 220.932 209.424 211.121 211.504 201.103C212.806 201.377 212.825 203.219 212.524 204.515C208.805 220.559 204.483 237.66 192.234 248.668C181.171 258.611 165.582 261.694 150.731 262.526C142.153 263.006 133.439 262.856 125.13 260.669C116.821 258.482 108.887 254.108 103.612 247.326C105.151 253.192 110.362 257.379 115.788 260.087C130.033 267.201 146.856 266.825 162.585 264.353C173.063 262.705 183.818 260.002 191.973 253.219C198.943 247.421 203.385 239.14 206.729 230.713C210.43 221.384 212.997 211.607 214.356 201.664C215.203 201.129 215.83 202.624 215.723 203.62C213.89 220.661 207.361 237.173 197.044 250.86L198.795 267.368ZM188.888 296.509C187.979 294.975 187.394 293.249 187.182 291.477L185.876 295.903L182.58 283.334C182.325 282.359 181.702 281.139 180.716 281.348C179.758 281.552 179.65 282.867 179.793 283.837C180.511 288.713 181.88 293.492 183.853 298.009L180.348 294.934C180.178 296.398 180.563 297.92 181.41 299.126C179.584 297.782 177.136 297.324 174.947 297.917C176.511 300.09 178.634 301.856 181.055 302.999L178.093 298.865C180.487 300.247 182.995 301.431 185.583 302.401L183.074 299.255L186.174 300.114C183.802 294.717 181.385 289.114 181.442 283.219C182.341 288.014 183.655 292.732 185.367 297.301C185.657 298.076 185.979 298.876 186.596 299.426C187.215 299.975 188.219 300.182 188.866 299.668C189.369 299.268 189.516 298.578 189.63 297.945L191.027 290.201L192.56 299.805C193.723 296.868 197.506 296.132 200.665 296.112C204.836 296.086 209.039 296.545 213.231 297.004H213.232H213.232C220.789 297.83 228.311 298.653 235.552 296.62C235.339 297.74 234.967 298.829 234.45 299.844C240.293 298.994 246.205 298.62 252.108 298.729C254.601 298.776 257.102 298.907 259.602 299.038H259.603H259.603H259.604C266.215 299.385 272.826 299.732 279.302 298.504L236.314 298.126C237.122 298.08 237.741 297.141 237.466 296.38C237.19 295.62 236.114 295.295 235.464 295.775C235.041 294.431 233.14 293.833 232.024 294.693C232.672 292.698 233.951 290.914 235.633 289.661C233.735 289.559 231.807 290.14 230.281 291.275L234.905 269.875C234.514 269.538 233.862 269.764 233.573 270.192C233.287 270.615 233.256 271.153 233.225 271.663L233.224 271.679C232.792 278.986 230.215 286.153 225.896 292.064L224.2 287.157L221.769 293.018C220.668 292.165 219.105 291.949 217.814 292.473C218.144 293.726 219.146 294.78 220.381 295.173L220.956 293.632L224.754 296.175C223.302 294.654 222.988 292.166 224.015 290.332L226.313 294.186L230.767 285.377C230.792 288.914 229.276 292.257 227.79 295.467C229.405 294.202 230.793 292.649 231.869 290.902C232.908 292.741 231.774 295.207 229.967 296.302C228.161 297.397 225.927 297.456 223.817 297.367C220.597 297.231 217.353 296.826 214.112 296.423C206.835 295.516 199.578 294.611 192.666 296.754L191.669 287.563C190.147 290.314 189.194 293.379 188.888 296.509ZM232.259 296.755C232.103 296.568 232.103 296.268 232.261 296.083L232.387 296.13C232.597 295.625 233.485 295.667 233.648 296.189C233.239 296.484 232.758 296.68 232.259 296.755ZM255.745 199.105C250.738 196.575 244.78 197.257 239.222 198.019C237.652 198.234 236.051 198.46 234.628 199.16C233.206 199.859 231.967 201.125 231.722 202.691C218.149 200.996 205.142 195.022 195.013 185.83C192.815 183.835 190.571 180.994 191.56 178.195C191.871 177.315 192.475 176.573 193.104 175.883C197.827 170.705 204.338 167.591 210.676 164.602C203.493 165.232 196.6 168.726 191.845 174.148C190.755 175.391 189.751 176.779 189.376 178.389C188.449 182.363 191.536 186.091 194.625 188.758C204.482 197.265 216.881 202.79 229.798 204.431C230.573 204.529 230.613 205.618 230.542 206.396C230.227 209.855 232.113 213.23 234.726 215.518C237.339 217.806 240.613 219.18 243.86 220.41C253.919 224.22 264.358 227.026 274.971 228.773C275.673 228.889 276.635 228.834 276.783 228.139C274.334 226.518 271.387 225.901 268.504 225.297L268.493 225.295L268.461 225.289L268.213 225.237L268.037 225.2C260.73 223.661 253.519 221.657 246.466 219.205C243.572 218.198 240.671 217.099 238.148 215.362C235.624 213.623 233.482 211.168 232.675 208.213C232.276 206.753 232.817 204.574 234.319 204.758C240.434 205.506 246.717 206.244 252.687 204.728C254.038 204.385 255.447 203.867 256.27 202.742C257.094 201.617 256.989 199.734 255.745 199.105ZM240.32 203.146C238.222 202.784 236.077 202.688 233.954 202.859C234.986 200.899 237.506 200.384 239.7 200.084C244.469 199.435 249.435 198.802 254.004 200.314C254.306 200.414 254.629 200.541 254.792 200.814C255.007 201.173 254.85 201.662 254.544 201.948C254.239 202.235 253.822 202.364 253.419 202.477C249.174 203.663 244.665 203.894 240.32 203.146ZM170.862 302.003C174.375 301.905 177.909 302.681 181.057 304.243C180.216 305.452 178.524 305.622 177.052 305.678L138.573 307.138C138.221 307.094 138.155 306.55 138.404 306.297C138.654 306.044 139.045 306.012 139.4 305.995L176.962 304.163C174.792 303.963 172.674 303.214 170.862 302.003ZM96.8113 174.745C96.2628 177.368 98.4817 180.166 101.154 180.364C96.7845 186.948 88.9145 190.198 81.3524 192.492C76.633 193.923 71.3977 195.098 66.8989 193.079C66.3406 193.42 66.936 194.26 67.5255 194.544C71.9038 196.654 77.0946 195.478 81.7516 194.088C88.5817 192.05 95.6216 189.416 100.269 184.012C100.459 183.791 100.649 183.563 100.84 183.334V183.333C102.036 181.896 103.283 180.397 105.082 180.064C110.872 178.993 115.694 175.367 120.459 171.783H120.46V171.782H120.46C121.541 170.97 122.618 170.159 123.704 169.382C130.301 164.653 137.618 160.931 145.325 158.383C146.006 158.158 146.834 157.74 146.773 157.026C137.218 157.903 128.866 163.601 121.165 169.325L120.908 169.516C115.674 173.407 110.205 177.473 103.765 178.437C105.868 176.778 105.424 172.944 103.051 171.701C100.677 170.458 97.3598 172.123 96.8113 174.745ZM98.5945 176.348C98.165 175.076 98.8277 173.563 100.006 172.918C100.34 172.735 100.714 172.613 101.095 172.613C102.354 172.612 103.272 173.957 103.28 175.215C103.289 176.473 102.651 177.633 102.031 178.729C100.582 178.506 99.0634 177.737 98.5945 176.348ZM241.574 148.316C241.218 147.92 241.328 147.386 241.441 146.832C241.521 146.441 241.603 146.041 241.524 145.672C241.456 145.353 241.27 145.081 241.083 144.809C240.918 144.567 240.752 144.325 240.667 144.049C240.686 143.684 241.174 143.496 241.507 143.648C241.84 143.799 242.026 144.157 242.142 144.503C242.566 145.768 242.348 147.23 241.574 148.316ZM209.363 120.562C210.253 118.451 212.018 116.579 214.269 116.151C214.997 116.012 214.975 114.811 214.336 114.434C213.699 114.056 212.879 114.279 212.209 114.598C209.091 116.083 207.123 119.349 206.352 122.715C205.58 126.081 205.835 129.586 206.095 133.03L207.473 151.333C207.52 151.955 207.577 152.609 207.924 153.128C208.63 154.185 210.143 154.218 211.412 154.138L217.833 153.73C216.406 152.611 214.491 152.141 212.707 152.47C211.667 152.662 210.62 151.975 210.069 151.072C209.517 150.168 209.355 149.086 209.219 148.037C208.324 141.168 207.995 134.224 208.238 127.302C208.318 125.012 208.473 122.672 209.363 120.562ZM225.758 283.026C225.393 283.291 225.028 282.688 224.975 282.241C222.493 261.383 222.119 240.338 221.748 219.335L221.497 205.177C221.49 204.774 221.496 204.332 221.755 204.023C222.201 203.491 223.14 203.735 223.529 204.309C223.919 204.884 223.92 205.628 223.907 206.322C223.525 226.99 223.776 247.697 225.755 268.273C225.779 268.523 225.803 268.774 225.827 269.025C226.281 273.699 226.741 278.443 225.758 283.026ZM205.128 151.547C204.585 151.249 203.914 151.418 203.319 151.594C175.81 159.73 148.363 168.119 121.321 177.695C120.815 177.874 120.235 178.132 120.119 178.657C119.996 179.212 120.519 179.742 121.078 179.845C121.638 179.948 122.203 179.748 122.737 179.552C149.838 169.582 177.347 160.721 205.172 152.999C205.769 152.834 205.671 151.846 205.128 151.547Z" fill="#00160A"/>
<path fill-rule="evenodd" clip-rule="evenodd" d="M303.142 276.006C302.501 276.288 301.808 276.55 301.118 276.431C300.429 276.313 299.784 275.665 299.922 274.98C301.188 268.71 299.599 261.921 295.681 256.866C294.308 255.094 292.673 253.535 291.335 251.736C290.492 250.603 289.742 249.178 290.17 247.832C290.778 245.916 293.229 245.45 295.234 245.314C299.895 244.996 304.557 244.678 309.218 244.361C311.366 244.214 313.84 244.192 315.274 245.798C319.265 250.269 327.045 250.569 331.368 246.42C332.038 245.777 332.88 247.056 332.854 247.983C332.77 250.897 331.569 253.766 329.55 255.871C329.074 256.367 328.465 256.854 327.781 256.783C327.097 256.711 326.592 255.729 327.138 255.31C328.308 254.411 329.5 253.489 330.321 252.262C331.142 251.036 331.539 249.428 330.98 248.062C327.969 251.871 324.929 255.658 321.86 259.421C316.54 265.946 310.85 272.621 303.142 276.006ZM311.55 256.806C310.784 257.017 309.967 256.854 309.203 256.638C303.701 255.084 298.632 250.785 293.004 251.791C299.566 257.076 303.051 265.938 301.845 274.277C306.169 273.352 309.583 270.124 312.646 266.934C317.179 262.213 321.482 257.272 325.538 252.134C322.623 252.11 319.719 251.269 317.243 249.733C314.183 250.489 314.587 255.965 311.55 256.806ZM315.545 248.125C313.723 245.976 310.448 246.043 307.641 246.289C303.98 246.611 300.319 246.932 296.658 247.254C295.171 247.385 293.464 247.645 292.689 248.921C299.026 250.247 305.203 252.331 311.049 255.112C311.8 252.751 313.307 250.636 315.294 249.155C315.517 248.988 315.773 248.774 315.743 248.497C315.728 248.355 315.638 248.234 315.545 248.125Z" fill="#1B4672"/>
<path fill-rule="evenodd" clip-rule="evenodd" d="M44.1311 196.888C38.6171 194.682 32.0461 195.336 27.0748 198.585C26.5935 198.9 25.9016 198.549 25.6633 198.026C25.4251 197.502 25.5142 196.894 25.636 196.332C27.2237 189.012 33.5488 183.411 40.5827 180.837C47.6167 178.263 55.3104 178.256 62.7881 178.696C63.5298 178.74 64.3052 178.798 64.9382 179.188C65.5711 179.577 65.9967 180.41 65.6814 181.083C62.7397 187.358 60.5242 193.973 59.0924 200.753C58.8601 201.852 57.7231 202.582 56.6031 202.674C55.4832 202.765 54.3857 202.351 53.3692 201.872C50.2016 200.379 47.3828 198.188 44.1311 196.888ZM44.7614 189.481C44.27 189.88 43.5019 189.67 43.0395 189.237C42.5771 188.804 42.3136 188.206 41.9502 187.687C40.0005 184.906 35.5265 185.137 32.8745 187.259C30.2226 189.381 28.9393 192.734 27.7707 195.923C35.5509 192.543 45.1336 193.756 51.8266 198.967C52.7406 199.679 53.6473 200.48 54.7727 200.754C55.898 201.028 57.3156 200.536 57.6006 199.413C59.1232 193.416 60.9995 187.51 63.2165 181.734C58.9626 187.021 50.0288 185.202 44.7614 189.481ZM43.0685 186.286C43.5054 186.834 44.2986 186.98 44.9892 186.856C45.6798 186.732 46.3071 186.388 46.9505 186.109C49.1657 185.146 51.6192 184.931 53.9943 184.491C56.3694 184.05 58.8187 183.305 60.4906 181.562C56.7183 181.551 52.9461 181.539 49.1741 181.528C45.3832 181.516 41.2981 181.597 38.2526 183.855C40.1066 183.922 41.9131 184.834 43.0685 186.286Z" fill="#1B4672"/>
<path fill-rule="evenodd" clip-rule="evenodd" d="M221.284 196.382C221.275 193.064 221.266 189.746 221.257 186.428C221.254 185.475 221.252 184.522 221.25 183.569C221.248 182.912 221.358 182.09 221.983 181.885C222.455 181.731 222.975 182.07 223.195 182.516C223.416 182.961 223.414 183.48 223.406 183.976C223.337 188.607 223.268 193.237 223.2 197.867C223.189 198.534 223.078 199.353 222.454 199.587C221.414 198.998 221.287 197.577 221.284 196.382Z" fill="#00160A"/>
<path fill-rule="evenodd" clip-rule="evenodd" d="M214.661 193.311C214.181 193.521 213.933 192.73 214.007 192.211C214.273 190.353 214.539 188.491 214.991 186.669C215.272 185.535 215.678 184.342 216.614 183.644C217.551 182.945 219.16 183.067 219.618 184.142C219.84 184.663 219.747 185.258 219.646 185.814C219.015 189.261 218.166 192.668 217.104 196.008C217.06 196.149 217.01 196.297 216.903 196.4C216.642 196.65 216.17 196.482 215.989 196.169C215.809 195.855 215.832 195.469 215.861 195.109C216.292 195.077 216.493 194.569 216.597 194.15C217.02 192.435 217.443 190.721 217.866 189.006C218.195 187.672 218.495 186.152 217.729 185.011C216.942 185.496 216.647 186.476 216.413 187.37C215.942 189.168 215.471 190.966 215 192.764C214.943 192.979 214.865 193.222 214.661 193.311Z" fill="#00160A"/>
</g>
<defs>
<clipPath id="clip0_92_3181">
<rect width="366" height="366" fill="white" transform="translate(0.402832)"/>
</clipPath>
</defs>
</svg>
