<svg width="49" height="49" viewBox="0 0 49 49" fill="none" xmlns="http://www.w3.org/2000/svg">
<rect x="0.5" y="0.5" width="48" height="48" rx="24" fill="#F0F1FD"/>
<g clip-path="url(#clip0_93_5227)">
<path d="M36.4461 13.529C36.5007 13.3927 36.5141 13.2434 36.4846 13.0996C36.4551 12.9558 36.384 12.8238 36.2802 12.72C36.1764 12.6162 36.0444 12.5451 35.9006 12.5156C35.7568 12.4861 35.6074 12.4994 35.4711 12.554L13.6506 21.2825H13.6491L12.9711 21.5525C12.8427 21.6037 12.731 21.6894 12.6482 21.8002C12.5655 21.9109 12.5149 22.0424 12.5022 22.1801C12.4895 22.3177 12.5151 22.4563 12.5761 22.5803C12.6372 22.7043 12.7313 22.8091 12.8481 22.883L13.4631 23.273L13.4646 23.276L20.9571 28.043L23.3421 31.79C24.5001 33.5 24.5001 32 24.5001 31.25C24.5 30.2969 24.7016 29.3545 25.0919 28.485C25.4821 27.6154 26.0521 26.8383 26.7643 26.2049C27.4765 25.5715 28.3148 25.0961 29.2239 24.81C30.1331 24.5239 31.0926 24.4336 32.0391 24.545L36.4461 13.529ZM33.6966 16.364L22.4556 27.605L22.1331 27.098C22.0741 27.005 21.9952 26.9261 21.9021 26.867L21.3951 26.5445L32.6361 15.3035L34.4031 14.597L33.6981 16.364H33.6966Z" fill="#002D63"/>
<path d="M36.5 31.25C36.5 32.6424 35.9469 33.9777 34.9623 34.9623C33.9777 35.9469 32.6424 36.5 31.25 36.5C29.8576 36.5 28.5223 35.9469 27.5377 34.9623C26.5531 33.9777 26 32.6424 26 31.25C26 29.8576 26.5531 28.5223 27.5377 27.5377C28.5223 26.5531 29.8576 26 31.25 26C32.6424 26 33.9777 26.5531 34.9623 27.5377C35.9469 28.5223 36.5 29.8576 36.5 31.25ZM33.5105 28.7315C33.426 28.6809 33.3323 28.6474 33.2349 28.6329C33.1374 28.6185 33.0381 28.6234 32.9426 28.6473C32.847 28.6713 32.7571 28.7138 32.678 28.7726C32.5989 28.8313 32.5321 28.905 32.4815 28.9895L30.7265 31.9145L29.906 31.094C29.7652 30.9532 29.5742 30.8741 29.375 30.8741C29.1758 30.8741 28.9848 30.9532 28.844 31.094C28.7032 31.2348 28.6241 31.4258 28.6241 31.625C28.6241 31.8242 28.7032 32.0152 28.844 32.156L30.005 33.3155C30.1258 33.4366 30.2727 33.5285 30.4344 33.5843C30.5961 33.6401 30.7684 33.6582 30.9382 33.6374C31.108 33.6166 31.2708 33.5573 31.4143 33.4641C31.5577 33.3709 31.678 33.2462 31.766 33.0995L33.7685 29.7605C33.8191 29.676 33.8526 29.5823 33.8671 29.4849C33.8815 29.3874 33.8766 29.2881 33.8527 29.1926C33.8287 29.097 33.7862 29.0071 33.7274 28.928C33.6687 28.8489 33.595 28.7821 33.5105 28.7315Z" fill="#002D63"/>
</g>
<defs>
<clipPath id="clip0_93_5227">
<rect width="24" height="24" fill="white" transform="translate(12.5 12.5)"/>
</clipPath>
</defs>
</svg>
