<svg width="24" height="25" viewBox="0 0 24 25" fill="none" xmlns="http://www.w3.org/2000/svg">
<path d="M12 14.75C13.2426 14.75 14.25 13.7426 14.25 12.5C14.25 11.2574 13.2426 10.25 12 10.25C10.7574 10.25 9.75 11.2574 9.75 12.5C9.75 13.7426 10.7574 14.75 12 14.75Z" fill="white"/>
<path d="M22.0496 14.5625L22.0275 14.5447L20.5481 13.3845C20.4545 13.3104 20.3797 13.2151 20.33 13.1065C20.2803 12.9979 20.2571 12.879 20.2622 12.7597V12.2178C20.2575 12.0992 20.281 11.9812 20.3308 11.8735C20.3806 11.7658 20.4553 11.6714 20.5486 11.5981L22.0275 10.4375L22.0496 10.4197C22.2776 10.2297 22.4307 9.96475 22.4814 9.67225C22.532 9.37976 22.477 9.07877 22.3261 8.82312L20.3241 5.35906C20.3218 5.35579 20.3197 5.35235 20.318 5.34875C20.1663 5.09664 19.9311 4.90562 19.6532 4.80886C19.3754 4.7121 19.0724 4.71571 18.7969 4.81906L18.7805 4.82516L17.0414 5.525C16.9317 5.56938 16.8129 5.58704 16.695 5.57653C16.5771 5.56602 16.4633 5.52763 16.3631 5.46453C16.2094 5.36766 16.0531 5.27609 15.8944 5.18984C15.7915 5.13403 15.7031 5.05481 15.6364 4.95856C15.5697 4.86232 15.5266 4.75176 15.5105 4.63578L15.2485 2.78L15.2428 2.74625C15.1858 2.45881 15.0315 2.19977 14.806 2.01265C14.5805 1.82554 14.2974 1.72176 14.0044 1.71875H9.99565C9.69849 1.7197 9.4112 1.82549 9.18439 2.01749C8.95758 2.20948 8.80581 2.47536 8.7558 2.76828L8.75159 2.79453L8.49049 4.65406C8.47448 4.7697 8.43168 4.88001 8.36552 4.9762C8.29936 5.07239 8.21166 5.1518 8.1094 5.20813C7.94909 5.29438 7.79252 5.38578 7.64065 5.48094C7.54065 5.54365 7.42719 5.58174 7.30961 5.59209C7.19202 5.60244 7.07366 5.58475 6.96424 5.54047L5.22377 4.83734L5.20737 4.83078C4.93149 4.72731 4.62807 4.72384 4.34989 4.82096C4.07172 4.91808 3.8364 5.10965 3.68487 5.36234L3.67877 5.37266L1.67393 8.83906C1.52282 9.09497 1.46767 9.39629 1.51833 9.68913C1.569 9.98197 1.72218 10.2472 1.95049 10.4375L1.97252 10.4553L3.4519 11.6155C3.54558 11.6896 3.62035 11.7849 3.67006 11.8935C3.71976 12.0021 3.74299 12.121 3.73784 12.2403V12.7822C3.74253 12.9008 3.71902 13.0188 3.66923 13.1265C3.61944 13.2342 3.54479 13.3286 3.45143 13.4019L1.97252 14.5625L1.95049 14.5803C1.72241 14.7703 1.56935 15.0353 1.51868 15.3277C1.46802 15.6202 1.52304 15.9212 1.67393 16.1769L3.67596 19.6409C3.67827 19.6442 3.6803 19.6477 3.68205 19.6512C3.83375 19.9034 4.06896 20.0944 4.34682 20.1911C4.62469 20.2879 4.92767 20.2843 5.20315 20.1809L5.21955 20.1748L6.95721 19.475C7.06697 19.4306 7.18571 19.413 7.30364 19.4235C7.42157 19.434 7.53531 19.4724 7.63549 19.5355C7.78924 19.6327 7.94549 19.7242 8.10424 19.8102C8.20717 19.866 8.29554 19.9452 8.36222 20.0414C8.42891 20.1377 8.47204 20.2482 8.48815 20.3642L8.74877 22.22L8.7544 22.2537C8.81154 22.5417 8.9662 22.8011 9.19231 22.9882C9.41841 23.1754 9.70214 23.2789 9.99565 23.2812H14.0044C14.3016 23.2803 14.5888 23.1745 14.8157 22.9825C15.0425 22.7905 15.1942 22.5246 15.2442 22.2317L15.2485 22.2055L15.5096 20.3459C15.5258 20.2301 15.569 20.1196 15.6356 20.0234C15.7021 19.9272 15.7903 19.8479 15.893 19.7919C16.0533 19.7056 16.2099 19.6142 16.3617 19.5191C16.4617 19.4564 16.5752 19.4183 16.6928 19.4079C16.8104 19.3976 16.9287 19.4153 17.0381 19.4595L18.7786 20.1603L18.795 20.1669C19.0709 20.2705 19.3744 20.2741 19.6526 20.177C19.9308 20.0798 20.1661 19.8881 20.3175 19.6353C20.3194 19.6318 20.3214 19.6283 20.3236 19.625L22.3256 16.1614C22.477 15.9055 22.5324 15.6041 22.4818 15.3112C22.4312 15.0182 22.278 14.7528 22.0496 14.5625V14.5625ZM15.7458 12.6763C15.7117 13.4021 15.4674 14.1025 15.0426 14.6921C14.6178 15.2817 14.0309 15.7352 13.3531 15.9974C12.6754 16.2597 11.936 16.3193 11.225 16.1692C10.514 16.019 9.86196 15.6655 9.34814 15.1516C8.83431 14.6377 8.48087 13.9856 8.33079 13.2746C8.18071 12.5635 8.24045 11.8242 8.50276 11.1465C8.76507 10.4688 9.21863 9.88192 9.8083 9.45721C10.398 9.0325 11.0983 8.78827 11.8242 8.75422C12.3454 8.73127 12.8656 8.81702 13.3518 9.00601C13.838 9.195 14.2796 9.48309 14.6484 9.85197C15.0172 10.2209 15.3053 10.6624 15.4942 11.1487C15.6831 11.6349 15.7688 12.1551 15.7458 12.6763V12.6763Z" fill="white"/>
</svg>
