<svg width="48" height="49" viewBox="0 0 48 49" fill="none" xmlns="http://www.w3.org/2000/svg">
<circle cx="24" cy="24.5" r="24" fill="white"/>
<path d="M24 7.75C15.0398 7.75 7.75 15.0398 7.75 24C7.75 32.9602 15.0398 40.25 24 40.25C32.9602 40.25 40.25 32.9602 40.25 24C40.25 15.0398 32.9602 7.75 24 7.75ZM20.0766 16.8766C21.0664 15.8273 22.4594 15.25 24 15.25C25.5406 15.25 26.9211 15.8313 27.9148 16.8859C28.9219 17.9547 29.4117 19.3906 29.2961 20.9344C29.0648 24 26.6898 26.5 24 26.5C21.3102 26.5 18.9305 24 18.7039 20.9336C18.5891 19.3773 19.0781 17.9367 20.0766 16.8766ZM24 37.75C22.1644 37.7512 20.3473 37.3838 18.6564 36.6696C16.9654 35.9554 15.4352 34.9089 14.1562 33.5922C14.8887 32.5476 15.822 31.6595 16.9016 30.9797C18.893 29.7031 21.4133 29 24 29C26.5867 29 29.107 29.7031 31.0961 30.9797C32.1766 31.6592 33.1107 32.5473 33.8438 33.5922C32.565 34.909 31.0347 35.9556 29.3437 36.6699C27.6528 37.3841 25.8356 37.7514 24 37.75Z" fill="url(#paint0_linear_92_3041)"/>
<defs>
<linearGradient id="paint0_linear_92_3041" x1="24" y1="7.75" x2="24" y2="40.25" gradientUnits="userSpaceOnUse">
<stop stop-color="#184172"/>
<stop offset="1" stop-color="#145C53"/>
</linearGradient>
</defs>
</svg>
