<svg width="52" height="53" viewBox="0 0 52 53" fill="none" xmlns="http://www.w3.org/2000/svg">
<path d="M26 0.5C11.6637 0.5 0 12.1637 0 26.5C0 40.8363 11.6637 52.5 26 52.5C40.3363 52.5 52 40.8363 52 26.5C52 12.1637 40.3363 0.5 26 0.5ZM19.7225 15.1025C21.3062 13.4238 23.535 12.5 26 12.5C28.465 12.5 30.6737 13.43 32.2637 15.1175C33.875 16.8275 34.6588 19.125 34.4738 21.595C34.1038 26.5 30.3037 30.5 26 30.5C21.6963 30.5 17.8888 26.5 17.5263 21.5938C17.3425 19.1038 18.125 16.7988 19.7225 15.1025ZM26 48.5C23.0631 48.5019 20.1557 47.9141 17.4502 46.7714C14.7447 45.6286 12.2963 43.9542 10.25 41.8475C11.4219 40.1762 12.9152 38.7552 14.6425 37.6675C17.8288 35.625 21.8612 34.5 26 34.5C30.1388 34.5 34.1712 35.625 37.3537 37.6675C39.0825 38.7547 40.5771 40.1757 41.75 41.8475C39.7039 43.9545 37.2555 45.629 34.55 46.7718C31.8444 47.9145 28.937 48.5022 26 48.5Z" fill="white"/>
</svg>
