<svg width="28" height="26" viewBox="0 0 28 26" fill="none" xmlns="http://www.w3.org/2000/svg">
<path d="M27.3322 8.66666C27.3322 8.42532 27.2669 8.18799 27.1415 7.97999L23.5295 1.95999C23.0509 1.16266 22.1749 0.666656 21.2442 0.666656H6.75353C5.82286 0.666656 4.94686 1.16266 4.46819 1.96132L0.856194 7.97999C0.730861 8.18799 0.665527 8.42532 0.665527 8.66666C0.665527 10.0067 1.18019 11.2187 1.99886 12.1573V12.6667V15.3333V24.6667C1.99886 25.404 2.59486 26 3.33219 26H13.9989C14.7362 26 15.3322 25.404 15.3322 24.6667V18H20.6655V24.6667C20.6655 25.404 21.2615 26 21.9989 26H24.6655C25.4029 26 25.9989 25.404 25.9989 24.6667V15.3333V12.6667V12.1573C26.8175 11.2187 27.3322 10.0067 27.3322 8.66666ZM24.6442 9.00132C24.4789 10.3147 23.3562 11.3333 21.9989 11.3333C20.5282 11.3333 19.3322 10.1373 19.3322 8.66666C19.3322 8.57599 19.2989 8.49599 19.2802 8.41066L19.3069 8.40532L18.2922 3.33332H21.2442L24.6442 9.00132ZM11.3415 8.75332L12.4242 3.33332H15.5722L16.6562 8.75332C16.6095 10.184 15.4389 11.3333 13.9989 11.3333C12.5589 11.3333 11.3882 10.184 11.3415 8.75332ZM6.75353 3.33332H9.70553L8.69219 8.40532L8.71886 8.41066C8.69886 8.49599 8.66553 8.57599 8.66553 8.66666C8.66553 10.1373 7.46953 11.3333 5.99886 11.3333C4.64153 11.3333 3.51886 10.3147 3.35353 9.00132L6.75353 3.33332ZM11.3322 19.3333H5.99886V15.3333H11.3322V19.3333Z" fill="white"/>
</svg>
