<svg width="16" height="16" viewBox="0 0 16 16" fill="none" xmlns="http://www.w3.org/2000/svg">
<g clip-path="url(#clip0_269_6272)">
<path d="M15.7307 8.95333H7.70799C7.2781 8.92021 6.85246 9.0577 6.52319 9.33606C6.19392 9.61443 5.98752 10.0113 5.94866 10.4407L5.94799 10.4467C5.98741 10.8817 6.19796 11.2833 6.53336 11.5632C6.86876 11.8431 7.30156 11.9784 7.73666 11.9393L7.73066 11.94H15.7307C15.781 11.9447 15.8318 11.9392 15.88 11.924C15.9282 11.9088 15.9729 11.8841 16.0115 11.8513C16.0501 11.8186 16.0817 11.7785 16.1046 11.7334C16.1274 11.6883 16.1411 11.6391 16.1447 11.5887V9.306C16.1316 9.20844 16.0836 9.11893 16.0095 9.05408C15.9355 8.98923 15.8404 8.95343 15.742 8.95333H15.73H15.7307ZM7.70799 11.3787C7.51944 11.3787 7.33512 11.3228 7.17835 11.218C7.02157 11.1132 6.89938 10.9644 6.82722 10.7902C6.75507 10.616 6.73619 10.4243 6.77297 10.2393C6.80976 10.0544 6.90056 9.88455 7.03388 9.75123C7.16721 9.6179 7.33708 9.5271 7.522 9.49032C7.70693 9.45353 7.89862 9.47241 8.07281 9.54457C8.24701 9.61672 8.3959 9.73892 8.50066 9.89569C8.60541 10.0525 8.66132 10.2368 8.66132 10.4253V10.428C8.66132 10.9533 8.23532 11.3787 7.71066 11.3787H7.70799ZM2.19666 0V4.26933H3.10866V2.44533C3.20066 2.468 3.30732 2.48267 3.41666 2.48667H3.41932C3.74887 2.48579 4.06467 2.35453 4.29776 2.12157C4.53084 1.88861 4.66227 1.57288 4.66332 1.24333C4.66111 1.1351 4.64635 1.02749 4.61932 0.922667L4.62132 0.932667H9.61599C9.59192 1.03369 9.57808 1.13687 9.57466 1.24067V1.24333C9.57554 1.57288 9.70679 1.88868 9.93975 2.12177C10.1727 2.35485 10.4884 2.48628 10.818 2.48733C10.93 2.48333 11.0373 2.46867 11.14 2.44333L11.1293 2.44533V4.26933H12.0633V0H2.19666ZM12.456 3.75067H13.6167C13.5297 3.49809 13.3773 3.27307 13.1751 3.09858C12.9728 2.92408 12.7279 2.80633 12.4653 2.75733L12.456 2.756V3.75067Z" fill="#145C53"/>
<path d="M7.64733 8.45591H15.606V6.03124C15.5719 5.67156 15.3979 5.33967 15.1214 5.1071C14.845 4.87452 14.4882 4.75989 14.128 4.78791H14.1327H1.49267C1.4819 4.77616 1.46719 4.7688 1.45133 4.76724C1.3637 4.72606 1.28867 4.66219 1.23405 4.58224C1.17942 4.50229 1.14718 4.40918 1.14067 4.31257V4.31124C1.15128 4.19133 1.19828 4.07752 1.27537 3.98506C1.35245 3.89261 1.45595 3.82591 1.572 3.79391L1.576 3.79324V2.73657C0.704667 2.77791 0 4.02124 0 5.57591V14.7572C0.0343941 15.1165 0.208341 15.4479 0.48446 15.6803C0.760579 15.9126 1.11683 16.0274 1.47667 15.9999H1.472H14.112C14.4703 16.0263 14.8247 15.9117 15.0996 15.6804C15.3745 15.4491 15.5481 15.1194 15.5833 14.7619L15.584 14.7566V12.3319H7.66933C6.38467 12.3319 5.348 11.4612 5.348 10.4046C5.348 9.32724 6.384 8.45657 7.648 8.45657L7.64733 8.45591Z" fill="#145C53"/>
</g>
<defs>
<clipPath id="clip0_269_6272">
<rect width="16" height="16" fill="white"/>
</clipPath>
</defs>
</svg>
